<svg width="15" height="14" viewBox="0 0 15 14" fill="none" xmlns="http://www.w3.org/2000/svg">
<path d="M14.038 7.00003L12.688 5.35003L12.763 3.17503L10.663 2.65002L9.46301 0.775024L7.438 1.52502L5.41299 0.775024L4.21301 2.57503L2.113 3.17503L2.188 5.35003L0.838013 7.00003L2.188 8.72503L2.113 10.9L4.21301 11.425L5.41299 13.225L7.438 12.475L9.46301 13.225L10.663 11.35L12.763 10.75L12.688 8.57503L14.038 7.00003ZM7.363 8.87503L6.46301 9.77502L5.563 8.87503L3.988 7.30003L4.88801 6.40002L6.46301 7.97503L9.988 4.45003L10.888 5.35003L7.363 8.87503Z" fill="url(#paint0_linear)"/>
<path d="M7.36285 8.76253L6.46287 9.66252L5.56286 8.76253L3.98785 7.18753L4.88786 6.28752L6.46287 7.86253L9.98785 4.33752L10.8879 5.23753L7.36285 8.76253Z" fill="white"/>
<defs>
<linearGradient id="paint0_linear" x1="0.838013" y1="0.775024" x2="14.038" y2="12.1417" gradientUnits="userSpaceOnUse">
<stop stop-color="#D89F00"/>
<stop offset="0.473958" stop-color="#FCD035"/>
<stop offset="0.776042" stop-color="#D89F00"/>
</linearGradient>
</defs>
</svg>
